<svg fill="none" height="48" viewBox="0 0 48 48" width="48" xmlns="http://www.w3.org/2000/svg"><g fill="#551a8b"><path d="m21 32.121-7.5-7.5015 2.1195-2.1195 5.3805 5.379 11.3775-11.379 2.1225 2.1225z"/><path d="m24 3c-4.1534 0-8.2135 1.23163-11.667 3.53914-3.4534 2.30751-6.14502 5.58726-7.73446 9.42446-1.58944 3.8373-2.00531 8.0597-1.19502 12.1333s2.81034 7.8154 5.74725 10.7523c2.93693 2.9369 6.67873 4.937 10.75233 5.7473s8.296.3944 12.1333-1.195c3.8372-1.5895 7.117-4.2811 9.4245-7.7345 2.3075-3.4535 3.5391-7.5136 3.5391-11.667 0-5.5695-2.2125-10.911-6.1508-14.84924-3.9382-3.93827-9.2796-6.15076-14.8492-6.15076zm0 39c-3.5601 0-7.0402-1.0557-10.0003-3.0335-2.96-1.9779-5.26714-4.7891-6.62952-8.0782s-1.71884-6.9083-1.02431-10.3999c.69454-3.4917 2.40887-6.699 4.92623-9.2163 2.5173-2.51737 5.7246-4.2317 9.2163-4.92624 3.4916-.69453 7.1108-.33807 10.3999 1.02431s6.1003 3.66953 8.0782 6.62953c1.9778 2.9601 3.0335 6.4402 3.0335 10.0003 0 4.7739-1.8964 9.3523-5.2721 12.7279-3.3756 3.3757-7.954 5.2721-12.7279 5.2721z"/></g></svg>